<svg width="300" height="300" viewBox="0 0 300 300" fill="none" xmlns="http://www.w3.org/2000/svg">
<rect width="300" height="300" fill="#FDFDFD"/>
<circle cx="47.5" cy="100.5" r="42.5" fill="#219653"/>
<circle cx="47.0707" cy="100.071" r="34.3434" fill="white"/>
<path d="M54.2148 102.586C54.0039 104.391 53.3359 105.785 52.2109 106.77C51.0938 107.746 49.6055 108.234 47.7461 108.234C45.7305 108.234 44.1133 107.512 42.8945 106.066C41.6836 104.621 41.0781 102.688 41.0781 100.266V98.625C41.0781 97.0391 41.3594 95.6445 41.9219 94.4414C42.4922 93.2383 43.2969 92.3164 44.3359 91.6758C45.375 91.0273 46.5781 90.7031 47.9453 90.7031C49.7578 90.7031 51.2109 91.2109 52.3047 92.2266C53.3984 93.2344 54.0352 94.6328 54.2148 96.4219H51.9531C51.7578 95.0625 51.332 94.0781 50.6758 93.4688C50.0273 92.8594 49.1172 92.5547 47.9453 92.5547C46.5078 92.5547 45.3789 93.0859 44.5586 94.1484C43.7461 95.2109 43.3398 96.7227 43.3398 98.6836V100.336C43.3398 102.188 43.7266 103.66 44.5 104.754C45.2734 105.848 46.3555 106.395 47.7461 106.395C48.9961 106.395 49.9531 106.113 50.6172 105.551C51.2891 104.98 51.7344 103.992 51.9531 102.586H54.2148Z" fill="black"/>
<circle cx="253.5" cy="100.5" r="42.5" fill="#2F80ED"/>
<circle cx="253.071" cy="100.071" r="34.3434" fill="white"/>
<path d="M254.625 108H252.375V90.9375H254.625V108Z" fill="black"/>
<circle cx="150.5" cy="50.5" r="42.5" fill="#FA2323"/>
<circle cx="150.071" cy="50.0707" r="34.3434" fill="white"/>
<path d="M151.344 51.0977H147.336V58H145.074V40.9375H150.723C152.645 40.9375 154.121 41.375 155.152 42.25C156.191 43.125 156.711 44.3984 156.711 46.0703C156.711 47.1328 156.422 48.0586 155.844 48.8477C155.273 49.6367 154.477 50.2266 153.453 50.6172L157.461 57.8594V58H155.047L151.344 51.0977ZM147.336 49.2578H150.793C151.91 49.2578 152.797 48.9688 153.453 48.3906C154.117 47.8125 154.449 47.0391 154.449 46.0703C154.449 45.0156 154.133 44.207 153.5 43.6445C152.875 43.082 151.969 42.7969 150.781 42.7891H147.336V49.2578Z" fill="black"/>
<circle cx="253.5" cy="215.5" r="42.5" fill="#F1C53C"/>
<circle cx="253.071" cy="215.071" r="34.3434" fill="white"/>
<path d="M257.074 218.547H249.926L248.32 223H246L252.516 205.938H254.484L261.012 223H258.703L257.074 218.547ZM250.605 216.695H256.406L253.5 208.715L250.605 216.695Z" fill="black"/>
<circle cx="150.5" cy="249.5" r="42.5" fill="#BB6BD9"/>
<circle cx="150.071" cy="249.071" r="34.3434" fill="white"/>
<path d="M150.383 249.395C148.453 248.84 147.047 248.16 146.164 247.355C145.289 246.543 144.852 245.543 144.852 244.355C144.852 243.012 145.387 241.902 146.457 241.027C147.535 240.145 148.934 239.703 150.652 239.703C151.824 239.703 152.867 239.93 153.781 240.383C154.703 240.836 155.414 241.461 155.914 242.258C156.422 243.055 156.676 243.926 156.676 244.871H154.414C154.414 243.84 154.086 243.031 153.43 242.445C152.773 241.852 151.848 241.555 150.652 241.555C149.543 241.555 148.676 241.801 148.051 242.293C147.434 242.777 147.125 243.453 147.125 244.32C147.125 245.016 147.418 245.605 148.004 246.09C148.598 246.566 149.602 247.004 151.016 247.402C152.438 247.801 153.547 248.242 154.344 248.727C155.148 249.203 155.742 249.762 156.125 250.402C156.516 251.043 156.711 251.797 156.711 252.664C156.711 254.047 156.172 255.156 155.094 255.992C154.016 256.82 152.574 257.234 150.77 257.234C149.598 257.234 148.504 257.012 147.488 256.566C146.473 256.113 145.688 255.496 145.133 254.715C144.586 253.934 144.312 253.047 144.312 252.055H146.574C146.574 253.086 146.953 253.902 147.711 254.504C148.477 255.098 149.496 255.395 150.77 255.395C151.957 255.395 152.867 255.152 153.5 254.668C154.133 254.184 154.449 253.523 154.449 252.688C154.449 251.852 154.156 251.207 153.57 250.754C152.984 250.293 151.922 249.84 150.383 249.395Z" fill="black"/>
<circle cx="47.5" cy="215.5" r="42.5" fill="#FA8700"/>
<circle cx="47.0707" cy="215.071" r="34.3434" fill="white"/>
<path d="M52.3047 215.113H44.9102V221.16H53.5V223H42.6602V205.938H53.3828V207.789H44.9102V213.273H52.3047V215.113Z" fill="black"/>
<path d="M109.046 135.744H100.55V144H98.3185V128.112C98.3185 128.096 98.2865 127.968 98.2225 127.728C98.1745 127.488 98.1265 127.24 98.0785 126.984C98.0305 126.728 97.9985 126.576 97.9825 126.528H100.55V134.112H109.046V126.528H111.278V144H109.046V135.744ZM122.195 144.264C120.899 144.264 119.763 144.024 118.787 143.544C117.827 143.064 117.027 142.408 116.387 141.576C115.747 140.728 115.267 139.768 114.947 138.696C114.627 137.624 114.467 136.488 114.467 135.288C114.467 134.088 114.619 132.952 114.923 131.88C115.243 130.792 115.723 129.832 116.363 129C117.003 128.152 117.811 127.488 118.787 127.008C119.763 126.528 120.907 126.288 122.219 126.288C123.531 126.288 124.667 126.528 125.627 127.008C126.603 127.488 127.411 128.152 128.051 129C128.691 129.832 129.163 130.792 129.467 131.88C129.787 132.952 129.947 134.088 129.947 135.288C129.947 136.488 129.787 137.632 129.467 138.72C129.147 139.792 128.667 140.744 128.027 141.576C127.387 142.408 126.579 143.064 125.603 143.544C124.643 144.024 123.507 144.264 122.195 144.264ZM122.219 142.632C123.243 142.632 124.099 142.416 124.787 141.984C125.475 141.552 126.027 140.976 126.443 140.256C126.859 139.536 127.155 138.744 127.331 137.88C127.523 137.016 127.619 136.152 127.619 135.288C127.619 134.424 127.523 133.56 127.331 132.696C127.155 131.832 126.859 131.048 126.443 130.344C126.027 129.624 125.467 129.048 124.763 128.616C124.075 128.184 123.227 127.968 122.219 127.968C121.211 127.968 120.355 128.184 119.651 128.616C118.963 129.048 118.411 129.624 117.995 130.344C117.595 131.064 117.299 131.856 117.107 132.72C116.931 133.584 116.843 134.448 116.843 135.312C116.843 136.176 116.931 137.04 117.107 137.904C117.299 138.752 117.595 139.536 117.995 140.256C118.411 140.976 118.963 141.552 119.651 141.984C120.355 142.416 121.211 142.632 122.219 142.632ZM132.787 126.528H135.355V142.344H142.699V144H133.123V128.112L132.787 126.528ZM145.115 126.528H147.683V142.344H155.027V144H145.451V128.112L145.115 126.528ZM164.403 126.528L170.451 144H167.979L165.963 138H160.203L158.163 144H156.147L162.219 126.528H164.403ZM163.107 129.456L160.755 136.368H165.411L163.107 129.456ZM175.583 126.528L183.215 138.264C183.359 138.488 183.511 138.728 183.671 138.984C183.831 139.224 183.991 139.456 184.151 139.68C184.135 139.408 184.119 139.136 184.103 138.864C184.087 138.576 184.079 138.304 184.079 138.048V126.528H185.903V144.12H184.487L175.583 130.488C175.455 130.28 175.311 130.064 175.151 129.84C175.007 129.6 174.855 129.376 174.695 129.168C174.743 129.664 174.767 130.184 174.767 130.728V144H172.943V128.112L172.607 126.528H175.583ZM203.66 135.312C203.66 136.992 203.372 138.488 202.796 139.8C202.236 141.096 201.372 142.12 200.204 142.872C199.036 143.624 197.548 144 195.74 144H190.052V128.112C190.052 128.096 190.02 127.968 189.956 127.728C189.908 127.488 189.86 127.24 189.812 126.984C189.764 126.728 189.732 126.576 189.716 126.528H194.204C196.156 126.528 197.836 126.824 199.244 127.416C200.652 127.992 201.74 128.928 202.508 130.224C203.276 131.504 203.66 133.2 203.66 135.312ZM201.332 135.264C201.332 132.736 200.708 130.928 199.46 129.84C198.228 128.736 196.42 128.184 194.036 128.184H192.284V142.344H195.452C196.908 142.344 198.06 142.024 198.908 141.384C199.772 140.744 200.388 139.888 200.756 138.816C201.14 137.744 201.332 136.56 201.332 135.264ZM122.248 173.288C120.872 173.288 119.68 173.048 118.672 172.568C117.68 172.088 116.856 171.44 116.2 170.624C115.544 169.792 115.056 168.856 114.736 167.816C114.432 166.776 114.28 165.704 114.28 164.6C114.28 163.4 114.456 162.248 114.808 161.144C115.16 160.024 115.672 159.024 116.344 158.144C117.032 157.264 117.888 156.568 118.912 156.056C119.936 155.544 121.12 155.288 122.464 155.288C123.024 155.288 123.632 155.36 124.288 155.504C124.96 155.632 125.6 155.832 126.208 156.104C126.816 156.376 127.312 156.736 127.696 157.184L126.448 158.576C125.984 158.064 125.36 157.672 124.576 157.4C123.808 157.112 123.088 156.968 122.416 156.968C121.488 156.968 120.672 157.184 119.968 157.616C119.264 158.032 118.672 158.6 118.192 159.32C117.712 160.04 117.344 160.848 117.088 161.744C116.848 162.64 116.728 163.552 116.728 164.48C116.728 165.92 116.96 167.168 117.424 168.224C117.888 169.264 118.544 170.072 119.392 170.648C120.24 171.208 121.24 171.488 122.392 171.488C123.064 171.488 123.792 171.392 124.576 171.2C125.36 171.008 126.168 170.704 127 170.288L127.744 171.656C127.28 171.992 126.72 172.28 126.064 172.52C125.424 172.76 124.768 172.944 124.096 173.072C123.424 173.216 122.808 173.288 122.248 173.288ZM136.633 173.264C135.337 173.264 134.201 173.024 133.225 172.544C132.265 172.064 131.465 171.408 130.825 170.576C130.185 169.728 129.705 168.768 129.385 167.696C129.065 166.624 128.905 165.488 128.905 164.288C128.905 163.088 129.057 161.952 129.361 160.88C129.681 159.792 130.161 158.832 130.801 158C131.441 157.152 132.249 156.488 133.225 156.008C134.201 155.528 135.345 155.288 136.657 155.288C137.969 155.288 139.105 155.528 140.065 156.008C141.041 156.488 141.849 157.152 142.489 158C143.129 158.832 143.601 159.792 143.905 160.88C144.225 161.952 144.385 163.088 144.385 164.288C144.385 165.488 144.225 166.632 143.905 167.72C143.585 168.792 143.105 169.744 142.465 170.576C141.825 171.408 141.017 172.064 140.041 172.544C139.081 173.024 137.945 173.264 136.633 173.264ZM136.657 171.632C137.681 171.632 138.537 171.416 139.225 170.984C139.913 170.552 140.465 169.976 140.881 169.256C141.297 168.536 141.593 167.744 141.769 166.88C141.961 166.016 142.057 165.152 142.057 164.288C142.057 163.424 141.961 162.56 141.769 161.696C141.593 160.832 141.297 160.048 140.881 159.344C140.465 158.624 139.905 158.048 139.201 157.616C138.513 157.184 137.665 156.968 136.657 156.968C135.649 156.968 134.793 157.184 134.089 157.616C133.401 158.048 132.849 158.624 132.433 159.344C132.033 160.064 131.737 160.856 131.545 161.72C131.369 162.584 131.281 163.448 131.281 164.312C131.281 165.176 131.369 166.04 131.545 166.904C131.737 167.752 132.033 168.536 132.433 169.256C132.849 169.976 133.401 170.552 134.089 170.984C134.793 171.416 135.649 171.632 136.657 171.632ZM161.168 164.312C161.168 165.992 160.88 167.488 160.304 168.8C159.744 170.096 158.88 171.12 157.712 171.872C156.544 172.624 155.056 173 153.248 173H147.56V157.112C147.56 157.096 147.528 156.968 147.464 156.728C147.416 156.488 147.368 156.24 147.32 155.984C147.272 155.728 147.24 155.576 147.224 155.528H151.712C153.664 155.528 155.344 155.824 156.752 156.416C158.16 156.992 159.248 157.928 160.016 159.224C160.784 160.504 161.168 162.2 161.168 164.312ZM158.84 164.264C158.84 161.736 158.216 159.928 156.968 158.84C155.736 157.736 153.928 157.184 151.544 157.184H149.792V171.344H152.96C154.416 171.344 155.568 171.024 156.416 170.384C157.28 169.744 157.896 168.888 158.264 167.816C158.648 166.744 158.84 165.56 158.84 164.264ZM164.005 155.528H174.493V157.184H166.573V163.208H172.717V164.84H166.573V171.344H174.493V173H164.341V157.112L164.005 155.528ZM182.169 155.288C182.969 155.288 183.745 155.4 184.497 155.624C185.265 155.848 185.993 156.168 186.681 156.584L185.577 158.192C185.081 157.824 184.537 157.536 183.945 157.328C183.369 157.104 182.769 156.992 182.145 156.992C181.297 156.992 180.577 157.208 179.985 157.64C179.393 158.056 179.097 158.728 179.097 159.656C179.097 160.168 179.233 160.608 179.505 160.976C179.793 161.328 180.169 161.64 180.633 161.912C181.097 162.184 181.601 162.448 182.145 162.704C182.705 162.96 183.273 163.24 183.849 163.544C184.441 163.848 184.977 164.208 185.457 164.624C185.953 165.024 186.345 165.52 186.633 166.112C186.937 166.688 187.089 167.4 187.089 168.248C187.089 169.4 186.809 170.352 186.249 171.104C185.689 171.84 184.953 172.392 184.041 172.76C183.129 173.112 182.145 173.288 181.089 173.288C180.225 173.288 179.385 173.176 178.569 172.952C177.769 172.712 176.985 172.392 176.217 171.992L177.081 170.024C177.609 170.472 178.249 170.84 179.001 171.128C179.753 171.416 180.473 171.56 181.161 171.56C181.689 171.56 182.225 171.464 182.769 171.272C183.313 171.064 183.769 170.736 184.137 170.288C184.505 169.84 184.689 169.264 184.689 168.56C184.689 167.856 184.521 167.28 184.185 166.832C183.849 166.368 183.409 165.984 182.865 165.68C182.321 165.36 181.745 165.056 181.137 164.768C180.609 164.512 180.081 164.248 179.553 163.976C179.025 163.704 178.545 163.384 178.113 163.016C177.681 162.648 177.337 162.208 177.081 161.696C176.825 161.184 176.697 160.568 176.697 159.848C176.697 158.84 176.961 158 177.489 157.328C178.033 156.656 178.721 156.152 179.553 155.816C180.401 155.464 181.273 155.288 182.169 155.288Z" fill="black"/>
</svg>
